<svg xmlns="http://www.w3.org/2000/svg" viewBox="0 0 240 240" role="img" aria-labelledby="title desc">
  <title id="title">Logo AMK</title>
  <desc id="desc">Silhouette pulau Kalimantan berwarna gelap dengan teks AMK berwarna putih.</desc>
  <path
    d="M118 14c-22.3 2.8-43.7 16.7-56.4 37.3-6.5 10.5-14 19.6-22.7 28-11.4 10.9-19.4 28.4-15 44.7 5.4 20 23.1 36.5 39 48.6 19.6 14.9 42.5 27.4 67.6 27.4 23.4 0 49-8.7 65-26 12.4-13.5 19.3-33 16.6-50.9-2.8-18.7-13.7-32.8-25.9-45.5-10.3-10.6-17.1-23.7-27.6-34.1-11.5-11.4-26.4-28.6-40.6-29.5-0.9-0.1-1.9-0.1-2.8 0z"
    fill="#050505"
  />
  <path
    d="M80 162l15.2-56h19l15.3 56h-12.6l-3-11.8H95.4L92.6 162H80zm25.6-40.9l-5.7 21.8h11.5l-5.8-21.8z"
    fill="#ffffff"
  />
  <path
    d="M129.5 106h12.3l8.5 26 8.7-26h11.9v56h-10.7v-30.9l-7.6 21.9h-5.1l-7.7-21.9V162h-10.3V106z"
    fill="#ffffff"
  />
  <path
    d="M176 106h11.9v21.6L205 106h14.1l-18.7 24.2L220 162h-14.7l-17.4-24.2V162H176V106z"
    fill="#ffffff"
  />
</svg>
