<?xml version="1.0" encoding="UTF-8"?>
<svg version="1.1" xmlns="http://www.w3.org/2000/svg" width="600" height="600">
<path d="M0 0 C1.921875 0.33984375 1.921875 0.33984375 4 1 C5.25 3.5625 5.25 3.5625 6 6 C5.34 6 4.68 6 4 6 C3.87625 6.7425 3.7525 7.485 3.625 8.25 C3.04513299 10.80141485 2.26291261 12.7267573 1 15 C2.98 14.67 4.96 14.34 7 14 C6.67 13.01 6.34 12.02 6 11 C6.99 11 7.98 11 9 11 C8.67 9.68 8.34 8.36 8 7 C8.66 6.67 9.32 6.34 10 6 C10 5.01 10 4.02 10 3 C11.8125 1.25 11.8125 1.25 14 0 C14.99 0.33 15.98 0.66 17 1 C17 1.99 17 2.98 17 4 C17.99 4 18.98 4 20 4 C21.4783226 6.95664519 21.06032783 9.74229737 21 13 C22.5778125 13.680625 22.5778125 13.680625 24.1875 14.375 C24.82945312 14.6534375 25.47140625 14.931875 26.1328125 15.21875 C27.58704805 15.82721676 29.07067533 16.36559645 30.5625 16.875 C34.00300956 18.46292749 36.34862145 20.28836285 39 23 C39.875 26.8125 39.875 26.8125 40 30 C38.02 30.33 36.04 30.66 34 31 C34.33 32.0725 34.66 33.145 35 34.25 C36 38 36 38 36 42 C37.65 42.33 39.3 42.66 41 43 C42.2065625 41.576875 42.2065625 41.576875 43.4375 40.125 C44.11619141 39.32449219 44.11619141 39.32449219 44.80859375 38.5078125 C46.0878152 36.99405921 46.0878152 36.99405921 47 35 C47.99 35.33 48.98 35.66 50 36 C50 37.98 50 39.96 50 42 C50.66 42.33 51.32 42.66 52 43 C51.8125 44.875 51.8125 44.875 51 47 C48.4375 48.25 48.4375 48.25 46 49 C49.08888522 51.05925681 49.70935927 51.2390374 53.1875 51.125 C54.445625 51.08375 55.70375 51.0425 57 51 C57.33 49.68 57.66 48.36 58 47 C63.52631579 46.63157895 63.52631579 46.63157895 65.6875 48.3125 C66.120625 48.869375 66.55375 49.42625 67 50 C67.8353125 50.7425 67.8353125 50.7425 68.6875 51.5 C70 53 70 53 70 56 C71.65 55.34 73.3 54.68 75 54 C75.72316406 54.63228516 75.72316406 54.63228516 76.4609375 55.27734375 C77.40839844 56.09912109 77.40839844 56.09912109 78.375 56.9375 C79.00148438 57.48277344 79.62796875 58.02804688 80.2734375 58.58984375 C81.95632334 60.06958624 81.95632334 60.06958624 84 61 C84.99 61.66 85.98 62.32 87 63 C90.20379124 63.24246783 90.20379124 63.24246783 93.6875 63.125 C94.86699219 63.10695312 96.04648437 63.08890625 97.26171875 63.0703125 C98.16535156 63.04710937 99.06898438 63.02390625 100 63 C100.58053939 66.00997054 101.04900714 68.92888594 101 72 C99.1875 74.0625 99.1875 74.0625 97 75 C96.34 75 95.68 75 95 75 C94.67 75.66 94.34 76.32 94 77 C91.66666667 77.66666667 89.33333333 78.33333333 87 79 C86.67 79.66 86.34 80.32 86 81 C79.78114785 82.58904424 73.4055984 83.29116356 67 83 C66.34 81.68 65.68 80.36 65 79 C61.9254644 79.7763932 61.9254644 79.7763932 60 82 C58.66666667 83.33333333 57.33333333 84.66666667 56 86 C58.8040517 90.74531826 61.29752069 92.96951334 66 96 C66.33 96.99 66.66 97.98 67 99 C68.65 99.33 70.3 99.66 72 100 C72 101.98 72 103.96 72 106 C64.92054529 108.59362511 58.33505053 109.42405095 50.80859375 109.69140625 C49.88175781 109.79324219 48.95492188 109.89507812 48 110 C47.67 110.66 47.34 111.32 47 112 C47 111.34 47 110.68 47 110 C46.05125 109.87625 45.1025 109.7525 44.125 109.625 C41 109 41 109 39 107 C36.93125966 106.3574765 36.93125966 106.3574765 35 106 C35.0928125 107.3921875 35.0928125 107.3921875 35.1875 108.8125 C35 112 35 112 33.75 113.75 C31.90580604 115.0672814 30.06658163 116.07360134 28 117 C32.13444897 120.63024788 36.17965188 123.35353436 41 126 C42 127 42 127 42.0625 130.5625 C42.041875 131.696875 42.02125 132.83125 42 134 C38.53287889 135.15570704 35.4585044 135.32835293 31.8125 135.5625 C30.54019531 135.64628906 29.26789063 135.73007813 27.95703125 135.81640625 C26.98121094 135.87699219 26.00539063 135.93757812 25 136 C26.134375 136.433125 27.26875 136.86625 28.4375 137.3125 C29.613125 137.869375 30.78875 138.42625 32 139 C32.33 139.99 32.66 140.98 33 142 C31.35 142.33 29.7 142.66 28 143 C28.33 143.66 28.66 144.32 29 145 C29.25 147.4375 29.25 147.4375 29 150 C28.01 150.99 27.02 151.98 26 153 C28.97 154.65 31.94 156.3 35 158 C35 159.98 35 161.96 35 164 C35.66 164.33 36.32 164.66 37 165 C37 166.32 37 167.64 37 169 C37.804375 169.804375 38.60875 170.60875 39.4375 171.4375 C42.25835681 174.25835681 42.32769178 175.25428276 43 179 C44.28659163 180.37849103 45.62913085 181.70529025 47 183 C47.94508475 184.14376733 48.86058408 185.3124276 49.75 186.5 C50.39195312 187.35078125 50.39195312 187.35078125 51.046875 188.21875 C52 190 52 190 52 194 C48.78548731 195.60725635 45.56387464 195.05748185 42 195 C42.66 195.928125 43.32 196.85625 44 197.8125 C46 201 46 201 46 204 C45.34 204 44.68 204 44 204 C45.07827013 208.56450809 45.07827013 208.56450809 48.4375 211.625 C49.283125 212.07875 50.12875 212.5325 51 213 C51.495 213.721875 51.99 214.44375 52.5 215.1875 C52.995 215.785625 53.49 216.38375 54 217 C54.78117187 216.94585937 55.56234375 216.89171875 56.3671875 216.8359375 C59 217 59 217 60.9140625 218.93359375 C61.47867187 219.75988281 62.04328125 220.58617187 62.625 221.4375 C65.06145752 225.16548267 65.06145752 225.16548267 69 227 C70.0209375 227.1546875 70.0209375 227.1546875 71.0625 227.3125 C73 228 73 228 73.9375 229.9375 C74.83289249 232.26995932 74.83289249 232.26995932 77.5 232.8125 C80 234 80 234 81.3125 237.625 C81.6528125 239.295625 81.6528125 239.295625 82 241 C83.65 241.33 85.3 241.66 87 242 C86.44779168 245.86545824 85.10644645 247.65578347 82 250 C78.92726331 250.66927146 75.88691116 250.74241493 72.75 250.8125 C71.51830078 250.86954102 71.51830078 250.86954102 70.26171875 250.92773438 C65.06421057 251.12130243 60.1104066 251.01640309 55 250 C54.34 249.01 53.68 248.02 53 247 C50.94074861 246.27617533 50.94074861 246.27617533 49 246 C49.66 246.66 50.32 247.32 51 248 C51.33 248.66 51.66 249.32 52 250 C51.67 250.66 51.34 251.32 51 252 C48.03 252 45.06 252 42 252 C41.34 253.32 40.68 254.64 40 256 C39.484375 256.845625 38.96875 257.69125 38.4375 258.5625 C36.88141236 261.00654778 36.88141236 261.00654778 36 264 C35.525625 264.4125 35.05125 264.825 34.5625 265.25 C29.95291622 270.41273384 30.62250736 278.39557854 30.34375 284.890625 C30 288 30 288 28 291 C28.80648688 294.65670531 28.80648688 294.65670531 30 298 C30.66 297.67 31.32 297.34 32 297 C32 297.66 32 298.32 32 299 C32.66 299 33.32 299 34 299 C33.07352941 303.76470588 33.07352941 303.76470588 32.375 306 C31.83862438 308.1025902 31.83862438 308.1025902 32.625 310.5625 C32.74875 311.366875 32.8725 312.17125 33 313 C30.83162338 315.83334545 28.42884682 316.7675968 25.125 317.9375 C17.79950954 320.78689251 14.65125204 324.03891294 11.11328125 330.9765625 C10 333 10 333 8 335 C6.35 334.34 4.7 333.68 3 333 C2.67 333.66 2.34 334.32 2 335 C2.66 335.33 3.32 335.66 4 336 C1.83956057 338.16043943 0.90961761 338.4544467 -2 339 C-2.66 339 -3.32 339 -4 339 C-5.72840348 340.14397385 -5.72840348 340.14397385 -7 342 C-6.938125 343.175625 -6.938125 343.175625 -6.875 344.375 C-7 347 -7 347 -9.3125 349.75 C-12 352 -12 352 -15 353 C-14.67 353.33 -14.34 353.66 -14 354 C-13.95936168 355.66617115 -13.957279 357.33388095 -14 359 C-13.01 359.33 -12.02 359.66 -11 360 C-11.3125 363.375 -11.3125 363.375 -12 367 C-12.99 367.66 -13.98 368.32 -15 369 C-14.34 369.66 -13.68 370.32 -13 371 C-11.35 371 -9.7 371 -8 371 C-8 374.63 -8 378.26 -8 382 C-8.66 382 -9.32 382 -10 382 C-10.33 382.99 -10.66 383.98 -11 385 C-12.32 384.67 -13.64 384.34 -15 384 C-14.95359375 384.96421875 -14.9071875 385.9284375 -14.859375 386.921875 C-14.82328125 388.18515625 -14.7871875 389.4484375 -14.75 390.75 C-14.70359375 392.00296875 -14.6571875 393.2559375 -14.609375 394.546875 C-15 398 -15 398 -16.828125 400.453125 C-19 402 -19 402 -22 402 C-21.67 402.66 -21.34 403.32 -21 404 C-21 405.32 -21 406.64 -21 408 C-20.34 408.33 -19.68 408.66 -19 409 C-17.99590727 413.32896585 -17.95005613 417.88414316 -18 422.3125 C-18.16976024 425.75344464 -18.16976024 425.75344464 -17.4296875 427.984375 C-16.64703625 431.65572088 -18.3162913 434.76702322 -20 438 C-22.5625 441 -22.5625 441 -25 443 C-25.66 443 -26.32 443 -27 443 C-28.26567024 439.20298927 -28.41951679 435.56927687 -28.71875 431.59375 C-28.91931261 428.88853697 -28.91931261 428.88853697 -30 426 C-31.97536745 426.34786708 -31.97536745 426.34786708 -34 427 C-34.33 427.66 -34.66 428.32 -35 429 C-36.64152733 429.72636784 -38.31735199 430.37476573 -40 431 C-41.38676234 431.58359151 -42.77062154 432.17410488 -44.15234375 432.76953125 C-52.85037432 436.48543324 -61.49525439 440.01176151 -70.5078125 442.89453125 C-71.74144531 443.44173828 -71.74144531 443.44173828 -73 444 C-73.33 444.99 -73.66 445.98 -74 447 C-74.9075 447.12375 -75.815 447.2475 -76.75 447.375 C-79.90027583 447.80981445 -79.90027583 447.80981445 -82.0625 449.125 C-84 450 -84 450 -89 449 C-89 444.05 -89 439.1 -89 434 C-89.66 433.67 -90.32 433.34 -91 433 C-90.95359375 432.39671875 -90.9071875 431.7934375 -90.859375 431.171875 C-90.56542494 426.03800196 -90.56542494 426.03800196 -92.6875 421.5 C-95.20591155 419.86643575 -97.05918671 419.45243281 -100 419 C-100.99 418.34 -101.98 417.68 -103 417 C-104.66608987 416.95615553 -106.33380554 416.9603287 -108 417 C-109.2065625 416.6596875 -109.2065625 416.6596875 -110.4375 416.3125 C-113.99534644 415.87861629 -115.83552465 417.38673805 -119 419 C-121.74949662 419.66385185 -124.14016444 419.85935235 -127 420 C-127.99 419.34 -128.98 418.68 -130 418 C-129.34 415.36 -128.68 412.72 -128 410 C-129.65 410.33 -131.3 410.66 -133 411 C-133.33 411.99 -133.66 412.98 -134 414 C-137.79303725 412.99806563 -140.71536341 412.18975773 -144 410 C-144 409.34 -144 408.68 -144 408 C-144.99 407.67 -145.98 407.34 -147 407 C-148.6875 404.9375 -148.6875 404.9375 -150 403 C-150 405.64 -150 408.28 -150 411 C-150.66 411.20625 -151.32 411.4125 -152 411.625 C-154.75884205 412.88946927 -156.6395536 414.19828381 -159 416.0625 C-161.96060687 418.33860566 -164.12912179 420 -168 420 C-171.32544781 418.85984646 -171.97788475 418.03317287 -174 415 C-176.39276893 414.42080714 -176.39276893 414.42080714 -179 415 C-181.36360548 416.69272509 -181.36360548 416.69272509 -183.5 418.9375 C-186.7069962 422.13885008 -188.55399797 423.27480808 -193 424 C-193.01458252 423.32420898 -193.02916504 422.64841797 -193.04418945 421.95214844 C-193.11875411 418.88419478 -193.21538655 415.81731924 -193.3125 412.75 C-193.33505859 411.68652344 -193.35761719 410.62304688 -193.38085938 409.52734375 C-193.4340332 407.99013672 -193.4340332 407.99013672 -193.48828125 406.421875 C-193.51446533 405.47924805 -193.54064941 404.53662109 -193.56762695 403.56542969 C-194.06261894 400.6284586 -195.04845984 399.20826197 -197 397 C-197.226875 397.639375 -197.45375 398.27875 -197.6875 398.9375 C-199 401 -199 401 -201.4375 401.875 C-204 402 -204 402 -207 400 C-211.76586143 399.72766506 -215.29001702 400.52212684 -219.25 403.1875 C-220.1575 403.785625 -221.065 404.38375 -222 405 C-224.5 404.4375 -224.5 404.4375 -227 403 C-228.093125 402.46375 -229.18625 401.9275 -230.3125 401.375 C-231.6428125 400.694375 -231.6428125 400.694375 -233 400 C-233.33 400.99 -233.66 401.98 -234 403 C-235.32 402.67 -236.64 402.34 -238 402 C-238.33 400.02 -238.66 398.04 -239 396 C-241.8913784 396.40158033 -243.67236367 396.74403411 -246 398.5625 C-248.48908319 400.35152855 -250.00256744 400.24978605 -253 400 C-252.6596875 398.39125 -252.6596875 398.39125 -252.3125 396.75 C-251.56940958 393.1240083 -251.56940958 393.1240083 -253.37890625 391.33984375 C-255.84007689 387.78745528 -256.04934309 384.03507427 -256.625 379.8125 C-256.74617188 378.99974609 -256.86734375 378.18699219 -256.9921875 377.34960938 C-257.35043774 374.90221507 -257.68002249 372.45267169 -258 370 C-258.11311523 369.17032715 -258.22623047 368.3406543 -258.34277344 367.48583984 C-258.44364258 366.69000488 -258.54451172 365.89416992 -258.6484375 365.07421875 C-258.74044434 364.36225342 -258.83245117 363.65028809 -258.92724609 362.91674805 C-259 361 -259 361 -258 358 C-257.92357291 355.88850355 -257.92357291 355.88850355 -259 354 C-259.99 353.67 -260.98 353.34 -262 353 C-262.99 352.67 -263.98 352.34 -265 352 C-266 350 -266 350 -266 348 C-264.66666667 346.66666667 -263.33333333 345.33333333 -262 344 C-261.79454782 341.16790836 -261.79454782 341.16790836 -261.9375 338 C-262.09794989 332.19589977 -262.09794989 332.19589977 -261 330 C-262.32 330 -263.64 330 -265 330 C-265.0825 328.906875 -265.165 327.81375 -265.25 326.6875 C-265.63689209 322.96723336 -265.63689209 322.96723336 -268.0625 321.0625 C-268.701875 320.711875 -269.34125 320.36125 -270 320 C-270.37125 320.928125 -270.7425 321.85625 -271.125 322.8125 C-273.33332163 326.56664677 -274.97623242 327.49108716 -279 329 C-279.99 329 -280.98 329 -282 329 C-282.33 329.66 -282.66 330.32 -283 331 C-284.28333842 328.43332316 -283.96706094 326.90400742 -283.6875 324.0625 C-283.60886719 323.18722656 -283.53023437 322.31195313 -283.44921875 321.41015625 C-283 319 -283 319 -281 316 C-280.34 316 -279.68 316 -279 316 C-279 315.34 -279 314.68 -279 314 C-279.69867188 313.95101563 -280.39734375 313.90203125 -281.1171875 313.8515625 C-282.02726562 313.77679688 -282.93734375 313.70203125 -283.875 313.625 C-284.77992188 313.55539062 -285.68484375 313.48578125 -286.6171875 313.4140625 C-289 313 -289 313 -291 311 C-291.125 308.375 -291.125 308.375 -291 306 C-290.34 305.67 -289.68 305.34 -289 305 C-289.969375 304.525625 -290.93875 304.05125 -291.9375 303.5625 C-295 302 -295 302 -296 301 C-296.31804076 298.53223925 -296.56116327 296.1029063 -296.75 293.625 C-296.85248047 292.59632813 -296.85248047 292.59632813 -296.95703125 291.546875 C-297.34667935 286.41151289 -297.34667935 286.41151289 -295.49609375 284.21484375 C-295.00238281 283.81394531 -294.50867188 283.41304688 -294 283 C-294.24662241 279.93685156 -294.24662241 279.93685156 -295 277 C-295 276.34 -295 275.68 -295 275 C-296.62861011 272.34279403 -297.71072758 271.13516991 -300.56640625 269.80078125 C-303 268 -303 268 -303.671875 264.8203125 C-303.69765625 263.60085938 -303.7234375 262.38140625 -303.75 261.125 C-303.85346398 256.17101715 -303.85346398 256.17101715 -304.640625 251.3046875 C-305.08714704 248.44112224 -304.30320431 247.5303091 -303 245 C-302.75889241 241.94985072 -302.75889241 241.94985072 -302.875 238.75 C-302.89304687 237.67234375 -302.91109375 236.5946875 -302.9296875 235.484375 C-302.95289063 234.66453125 -302.97609375 233.8446875 -303 233 C-302.34 232.67 -301.68 232.34 -301 232 C-300.6451046 230.00371336 -300.31421071 228.00309329 -300 226 C-298.71851805 222.80549237 -297.35399912 221.33205099 -294.5625 219.375 C-291.30176476 216.76774545 -290.48139284 214.87003022 -289.625 210.8125 C-288.55437814 206.36272788 -288.55437814 206.36272788 -286 204.69140625 C-282.04986381 203.33354693 -278.19179948 202.59434199 -274 203 C-274 204.98 -274 206.96 -274 209 C-273.278125 209.268125 -272.55625 209.53625 -271.8125 209.8125 C-269.02047083 210.99135676 -266.57013814 212.40234656 -264 214 C-263.34 214.33 -262.68 214.66 -262 215 C-260.66582031 214.53980469 -260.66582031 214.53980469 -259.3046875 214.0703125 C-255.70606942 212.90480263 -252.8928215 212.79810568 -249.125 212.875 C-247.97257812 212.89304687 -246.82015625 212.91109375 -245.6328125 212.9296875 C-244.76398438 212.95289063 -243.89515625 212.97609375 -243 213 C-242.690625 213.78375 -242.38125 214.5675 -242.0625 215.375 C-241.07124962 217.92330128 -241.07124962 217.92330128 -240 220 C-235.55224948 221.15921397 -235.55224948 221.15921397 -231.1875 220.25 C-229 220 -229 220 -226.25 221.9375 C-225.5075 222.618125 -224.765 223.29875 -224 224 C-223.9175 222.88625 -223.835 221.7725 -223.75 220.625 C-223 217 -223 217 -220.9375 215.5625 C-220.298125 215.376875 -219.65875 215.19125 -219 215 C-219.061875 213.824375 -219.12375 212.64875 -219.1875 211.4375 C-219.21141834 206.94085293 -217.89858498 204.03449308 -216 200 C-216 199.01 -216 198.02 -216 197 C-216 196.01 -216 195.02 -216 194 C-216.01160156 193.34902344 -216.02320313 192.69804687 -216.03515625 192.02734375 C-216.11111111 186.22222222 -216.11111111 186.22222222 -215 184 C-214.01 184 -213.02 184 -212 184 C-212.020625 182.783125 -212.04125 181.56625 -212.0625 180.3125 C-212.06824116 177.08022678 -211.78766315 174.15065259 -211 171 C-210.21496094 171.58201172 -210.21496094 171.58201172 -209.4140625 172.17578125 C-206.87484316 173.31764658 -206.87484316 173.31764658 -203.8359375 171.91796875 C-202.69382812 171.34691406 -201.55171875 170.77585938 -200.375 170.1875 C-198.65410156 169.34251953 -198.65410156 169.34251953 -196.8984375 168.48046875 C-195.46371094 167.74763672 -195.46371094 167.74763672 -194 167 C-191.03676078 165.51838039 -187.88031472 165.47619578 -184.625 165.125 C-172.83516229 163.84750448 -172.83516229 163.84750448 -161.796875 159.84375 C-161.20390625 159.5653125 -160.6109375 159.286875 -160 159 C-159.34 159.33 -158.68 159.66 -158 160 C-157.67 159.34 -157.34 158.68 -157 158 C-155.00390625 157.21875 -155.00390625 157.21875 -152.5625 156.5 C-148.90617965 155.42683488 -148.90617965 155.42683488 -146 153 C-143.875 152.375 -143.875 152.375 -142 152 C-141.938125 151.113125 -141.87625 150.22625 -141.8125 149.3125 C-140.79005428 145.14406744 -139.11833118 143.91044244 -136 141 C-134.44273793 139.03400773 -132.96760072 137.01832675 -131.484375 134.99609375 C-124.39722463 125.46574154 -124.39722463 125.46574154 -120 124 C-119.32568846 122.00256455 -118.66015793 120.00215782 -118 118 C-116.0546875 115.47265625 -116.0546875 115.47265625 -113.875 113.0625 C-110.58543688 109.15456181 -110.58543688 109.15456181 -109.5625 104.1875 C-109.7790625 102.6096875 -109.7790625 102.6096875 -110 101 C-109.70683346 99.32580101 -109.37972213 97.65671361 -109 96 C-107.90300781 95.80664062 -106.80601562 95.61328125 -105.67578125 95.4140625 C-104.22130418 95.15131825 -102.76687983 94.88828199 -101.3125 94.625 C-100.59126953 94.49867188 -99.87003906 94.37234375 -99.12695312 94.2421875 C-91.9293497 92.99776361 -91.9293497 92.99776361 -86 89 C-80.90295819 84.99518143 -76.17914687 82.01181526 -70 80 C-69.67 79.34 -69.34 78.68 -69 78 C-68.34 78.33 -67.68 78.66 -67 79 C-67 81.31 -67 83.62 -67 86 C-64.11562221 84.70700306 -62.12780579 83.34058637 -60 81 C-59.67 81.66 -59.34 82.32 -59 83 C-56.97536745 83.65213292 -56.97536745 83.65213292 -55 84 C-54.6596875 83.1646875 -54.6596875 83.1646875 -54.3125 82.3125 C-52.64103234 79.36753316 -50.44723648 77.31843456 -48 75 C-48.42152344 74.55269531 -48.84304688 74.10539062 -49.27734375 73.64453125 C-54.71880492 67.6397188 -54.71880492 67.6397188 -55 63 C-54.4225 62.773125 -53.845 62.54625 -53.25 62.3125 C-50.4336339 60.66961977 -48.91922886 58.60466773 -47 56 C-46.505 56.165 -46.01 56.33 -45.5 56.5 C-41.96555911 57.20688818 -38.60309299 57.06005155 -35 57 C-34.67 54.36 -34.34 51.72 -34 49 C-32.35 48.67 -30.7 48.34 -29 48 C-28.34 45.03 -27.68 42.06 -27 39 C-26.34 39 -25.68 39 -25 39 C-24.67 36.03 -24.34 33.06 -24 30 C-22.02 29.505 -22.02 29.505 -20 29 C-13.30039282 22.97035354 -8.99073967 15.98147933 -5 8 C-4.15457802 6.61960608 -3.29938455 5.24517543 -2.4375 3.875 C-1.98246094 3.15054688 -1.52742188 2.42609375 -1.05859375 1.6796875 C-0.70925781 1.12539063 -0.35992187 0.57109375 0 0 Z " fill="#090909" transform="translate(432,45)"/>
<path d="M0 0 C9.24 0 18.48 0 28 0 C26.06881406 6.43728648 24.09999349 12.6668027 21.70703125 18.91796875 C21.07413269 20.5905744 20.44123899 22.26318189 19.80834961 23.93579102 C19.31889359 25.22345871 19.31889359 25.22345871 18.81954956 26.53713989 C13.87047692 39.56214403 9.0027685 52.59650002 4.50952148 65.78662109 C2.77274784 70.86067728 0.91611007 75.85325072 -1.125 80.8125 C-3.67061803 87.01354229 -5.84205781 93.28867369 -7.90869141 99.66137695 C-9.47749846 104.49587521 -11.18532025 109.25185564 -13 114 C-12.45472656 113.39414062 -11.90945313 112.78828125 -11.34765625 112.1640625 C-9.75144595 110.39049551 -8.15507923 108.61706929 -6.55859375 106.84375 C-4.96627726 105.07396923 -3.37495102 103.30329637 -1.78515625 101.53125 C4.56344975 94.45938509 10.98597825 87.45663884 17.41601562 80.45898438 C18.35446877 79.43745931 19.29173349 78.41484113 20.2277832 77.39111328 C21.1580402 76.38169585 22.09672356 75.37997844 23.04370117 74.38623047 C25.26394726 72.0345558 27.13862117 69.77668217 28.84765625 67.0234375 C31.06866998 63.67541256 32.46500113 61.98682418 36 60 C43.92196006 58.78014834 52.0415897 59.38701663 60 60 C58.19970487 63.86138308 55.71886212 66.67954941 52.8125 69.75 C51.8066693 70.83014996 50.80145959 71.91087851 49.796875 72.9921875 C49.31154297 73.51264648 48.82621094 74.03310547 48.32617188 74.56933594 C44.53937253 78.65450607 40.9329661 82.89919161 37.328125 87.14453125 C31.63333589 93.83992118 25.85960855 100.42451195 19.83325195 106.82495117 C17.66259575 109.14039166 15.76620531 111.35069204 14 114 C14.20487017 117.06063613 14.54627072 119.97333331 15 123 C15.13760742 124.00643555 15.27521484 125.01287109 15.41699219 126.04980469 C15.88879826 129.49368197 16.37997464 132.93438662 16.875 136.375 C17.05063477 137.60565186 17.22626953 138.83630371 17.40722656 140.10424805 C18.55680786 148.10176619 19.76197827 156.08796955 21.13623047 164.05029297 C21.88064805 168.52828318 22 172.36740157 22 177 C12.76 177 3.52 177 -6 177 C-7.34010471 170.9695288 -8.4109876 165.33757702 -9 159.25 C-9.65545918 152.92494892 -10.47519469 146.66484607 -11.49609375 140.38671875 C-12.23353792 135.43040791 -12.77759664 130.45339705 -13.30273438 125.47045898 C-13.40648028 121.93500766 -13.40648028 121.93500766 -15 119 C-15.43570313 120.1859375 -15.87140625 121.371875 -16.3203125 122.59375 C-16.92178145 124.22920107 -17.52335174 125.86461488 -18.125 127.5 C-18.6036853 128.80179199 -18.6036853 128.80179199 -19.09204102 130.12988281 C-20.55318779 134.09746107 -22.01774094 138.06322715 -23.51953125 142.015625 C-27.91705701 153.59698762 -31.95714911 165.28967328 -36 177 C-45.57 177 -55.14 177 -65 177 C-63.66876974 171.00946385 -62.6190297 166.61574387 -60.3125 161.1875 C-57.84771052 155.25442691 -55.64921755 149.2634273 -53.5625 143.1875 C-51.0205654 135.8010617 -48.29371387 128.51367297 -45.4230957 121.24926758 C-43.38161683 116.05684838 -41.54314626 110.82471757 -39.82421875 105.515625 C-38.91462033 102.73940991 -37.90395537 100.01657792 -36.859375 97.2890625 C-34.83151406 91.88757836 -32.93379013 86.43551822 -31 81 C-37.27 81 -43.54 81 -50 81 C-50.47832275 82.32427002 -50.95664551 83.64854004 -51.44946289 85.01293945 C-53.25859132 90.02113331 -55.06851827 95.0290383 -56.87866211 100.03686523 C-57.65556585 102.18652856 -58.43226537 104.33626571 -59.20874023 106.48608398 C-63.86326981 119.37254175 -68.54368629 132.24856143 -73.29690552 145.09896851 C-74.22449003 147.60697763 -75.14945272 150.11595047 -76.07421875 152.625 C-76.88326366 154.81908433 -77.69235329 157.01315161 -78.50195312 159.20703125 C-80.6860723 165.13164907 -82.842033 171.06559075 -85 177 C-93.91 177 -102.82 177 -112 177 C-110.25978868 171.77936603 -108.5296665 166.62172986 -106.6171875 161.47265625 C-106.17705322 160.28236816 -105.73691895 159.09208008 -105.28344727 157.86572266 C-105.05408478 157.24658997 -104.82472229 156.62745728 -104.58840942 155.98956299 C-100.79406958 145.74028449 -97.09044333 135.46967497 -93.5625 125.125 C-88.38277026 109.9567316 -82.68414552 94.98460021 -77 80 C-83.6 80 -90.2 80 -97 80 C-97.33 81.98 -97.66 83.96 -98 86 C-98.81595216 88.4514999 -99.66648591 90.84832493 -100.58984375 93.2578125 C-100.84954453 93.94939957 -101.1092453 94.64098663 -101.3768158 95.35353088 C-101.93484183 96.83831028 -102.49524261 98.32219897 -103.05780029 99.80526733 C-104.56164602 103.77084788 -106.04765033 107.7431115 -107.53515625 111.71484375 C-107.8345813 112.51310074 -108.13400635 113.31135773 -108.44250488 114.13380432 C-110.9972481 120.95808899 -113.45202403 127.81535889 -115.875 134.6875 C-120.26037627 147.0959761 -124.89180642 159.40590049 -129.54150391 171.71716309 C-134.04493981 183.65058829 -138.4017703 195.61350863 -142.47485352 207.70166016 C-142.80026123 208.66507324 -143.12566895 209.62848633 -143.4609375 210.62109375 C-143.87545166 211.86524048 -143.87545166 211.86524048 -144.29833984 213.13452148 C-145 215 -145 215 -146 216 C-147.99964982 216.08758003 -150.0023611 216.10696576 -152.00390625 216.09765625 C-153.21884766 216.09443359 -154.43378906 216.09121094 -155.68554688 216.08789062 C-156.96494141 216.07951172 -158.24433594 216.07113281 -159.5625 216.0625 C-160.84576172 216.05798828 -162.12902344 216.05347656 -163.45117188 216.04882812 C-166.63416022 216.03699545 -169.81705762 216.02051068 -173 216 C-168.14272586 200.89520041 -162.66211296 186.0308807 -157.14465332 171.15704346 C-155.49994355 166.72160787 -153.85948232 162.28459919 -152.2190094 157.84759521 C-151.3518571 155.50300434 -150.48372197 153.1587766 -149.61436462 150.81500244 C-146.68234828 142.89739766 -143.82854991 134.95504108 -141 127 C-147.6 127 -154.2 127 -161 127 C-161.66 129.97 -162.32 132.94 -163 136 C-164.0078125 138.6953125 -164.0078125 138.6953125 -165.125 141.125 C-170.17881922 152.77141324 -173.98811905 164.96435715 -178 177 C-187.24 177 -196.48 177 -206 177 C-204.08275849 171.24827546 -202.13847039 165.54273441 -200.03125 159.86328125 C-199.7546907 159.11418488 -199.47813141 158.3650885 -199.19319153 157.59329224 C-198.29675068 155.16588271 -197.39839436 152.73918712 -196.5 150.3125 C-195.23250623 146.88302176 -193.96588342 143.45322203 -192.69921875 140.0234375 C-192.38325241 139.16832077 -192.06728607 138.31320404 -191.741745 137.43217468 C-189.82480026 132.2420965 -187.91656828 127.04894903 -186.01953125 121.8515625 C-185.79071762 121.22481628 -185.56190399 120.59807007 -185.32615662 119.95233154 C-185.10130081 119.33642151 -184.87644501 118.72051147 -184.64477539 118.0859375 C-180.08734862 105.6054197 -175.44101334 93.16237348 -170.70239258 80.74975586 C-170.0627356 79.07345093 -170.0627356 79.07345093 -169.41015625 77.36328125 C-169.04027588 76.39688721 -168.67039551 75.43049316 -168.28930664 74.43481445 C-166.48835393 69.63693457 -164.74473434 64.81856067 -163 60 C-155.6169011 59.89816813 -148.23398488 59.82835342 -140.8503418 59.78027344 C-138.34115836 59.76021938 -135.83202131 59.73296915 -133.32299805 59.69824219 C-129.70610067 59.64945246 -126.0898239 59.62696818 -122.47265625 59.609375 C-121.35979752 59.58872986 -120.24693878 59.56808472 -119.10035706 59.54681396 C-111.57953405 59.54467121 -105.19010593 60.52229015 -99.25575256 65.44769287 C-98 67 -98 67 -98 70 C-97.34 70 -96.68 70 -96 70 C-95.86722656 69.36191406 -95.73445313 68.72382813 -95.59765625 68.06640625 C-95.33275391 66.82697266 -95.33275391 66.82697266 -95.0625 65.5625 C-94.80146484 64.32693359 -94.80146484 64.32693359 -94.53515625 63.06640625 C-94 61 -94 61 -93 60 C-88.71095423 59.73195775 -84.41580589 59.72858719 -80.11938477 59.70483398 C-77.97019592 59.68775975 -75.82260236 59.64391655 -73.67382812 59.59960938 C-66.1275672 59.51402039 -60.36871017 59.68263468 -54 64 C-52 66.25 -52 66.25 -51 68 C-49.68 65.36 -48.36 62.72 -47 60 C-38.75 60 -30.5 60 -22 60 C-21.01 56.7 -20.02 53.4 -19 50 C-18.39795295 48.22788636 -17.779345 46.46112816 -17.13061523 44.70556641 C-16.79694443 43.79827789 -16.46327362 42.89098938 -16.11949158 41.95620728 C-15.59434715 40.54315811 -15.59434715 40.54315811 -15.05859375 39.1015625 C-14.50607689 37.60548965 -14.50607689 37.60548965 -13.94239807 36.07919312 C-13.169865 33.9895852 -12.39583356 31.90053067 -11.62036133 29.81201172 C-10.43358407 26.61444921 -9.25259782 23.4147902 -8.07226562 20.21484375 C-7.31804964 18.17695698 -6.56350402 16.13919218 -5.80859375 14.1015625 C-5.28041298 12.67029526 -5.28041298 12.67029526 -4.74156189 11.21011353 C-4.41104324 10.32173798 -4.0805246 9.43336243 -3.73999023 8.51806641 C-3.30722023 7.35085556 -3.30722023 7.35085556 -2.8657074 6.1600647 C-2.02321861 4.05793377 -1.01279236 2.02558471 0 0 Z " fill="#FBFBFB" transform="translate(399,188)"/>
<path d="M0 0 C1.08748535 -0.02006104 2.1749707 -0.04012207 3.29541016 -0.06079102 C8.26754984 -0.00591168 13.21921429 0.19782581 18.1796875 0.5390625 C16.37939237 4.40044558 13.89854962 7.21861191 10.9921875 10.2890625 C9.9863568 11.36921246 8.98114709 12.44994101 7.9765625 13.53125 C7.49123047 14.05170898 7.00589844 14.57216797 6.50585938 15.10839844 C2.71906003 19.19356857 -0.8873464 23.43825411 -4.4921875 27.68359375 C-10.18697661 34.37898368 -15.96070395 40.96357445 -21.98706055 47.36401367 C-24.15771675 49.67945416 -26.05410719 51.88975454 -27.8203125 54.5390625 C-27.61544233 57.59969863 -27.27404178 60.51239581 -26.8203125 63.5390625 C-26.68270508 64.54549805 -26.54509766 65.55193359 -26.40332031 66.58886719 C-25.93151424 70.03274447 -25.44033786 73.47344912 -24.9453125 76.9140625 C-24.76967773 78.14471436 -24.59404297 79.37536621 -24.41308594 80.64331055 C-23.26350464 88.64082869 -22.05833423 96.62703205 -20.68408203 104.58935547 C-19.93966445 109.06734568 -19.8203125 112.90646407 -19.8203125 117.5390625 C-29.0603125 117.5390625 -38.3003125 117.5390625 -47.8203125 117.5390625 C-49.1603986 111.50867506 -50.23156051 105.87662429 -50.8203125 99.7890625 C-51.35885869 94.57296484 -51.95675627 89.40115337 -52.8203125 84.2265625 C-53.16133345 81.99855894 -53.49348317 79.76919203 -53.8203125 77.5390625 C-53.94535156 76.724375 -54.07039063 75.9096875 -54.19921875 75.0703125 C-54.6102468 72.29288021 -54.96889034 69.51211411 -55.3203125 66.7265625 C-55.45824219 65.84250732 -55.59617187 64.95845215 -55.73828125 64.04760742 C-56.29095206 59.28755064 -56.18603251 56.34681745 -53.31640625 52.40234375 C-52.18020198 51.08878318 -51.01338565 49.80119481 -49.8203125 48.5390625 C-48.93400146 47.55329224 -48.93400146 47.55329224 -48.02978516 46.54760742 C-46.17698071 44.51466235 -44.28760548 42.52330259 -42.3828125 40.5390625 C-37.99844728 35.94378104 -33.70786385 31.30166534 -29.54614258 26.50341797 C-26.1351969 22.62104862 -22.58425803 18.86441855 -18.99560547 15.14624023 C-16.34257236 12.37349794 -14.00930686 9.84402155 -11.98046875 6.5703125 C-8.91549507 1.64139808 -5.71888578 0.09098019 0 0 Z " fill="#FAFAFA" transform="translate(440.8203125,247.4609375)"/>
<path d="M0 0 C0.87454834 0.00523682 1.74909668 0.01047363 2.65014648 0.01586914 C3.50036377 0.0183667 4.35058105 0.02086426 5.2265625 0.0234375 C6.85742798 0.03709351 6.85742798 0.03709351 8.52124023 0.05102539 C11.96561523 0.07165039 15.40999023 0.09227539 18.95874023 0.11352539 C15.98874023 9.02352539 13.01874023 17.93352539 9.95874023 27.11352539 C3.02874023 27.11352539 -3.90125977 27.11352539 -11.04125977 27.11352539 C-8.7892033 16.9792713 -8.7892033 16.9792713 -7.56860352 13.55102539 C-7.30885742 12.81754883 -7.04911133 12.08407227 -6.78149414 11.32836914 C-6.5165918 10.5974707 -6.25168945 9.86657227 -5.97875977 9.11352539 C-5.70999023 8.35168945 -5.4412207 7.58985352 -5.16430664 6.80493164 C-2.7876506 0.15503618 -2.7876506 0.15503618 0 0 Z " fill="#080808" transform="translate(257.041259765625,267.886474609375)"/>
<path d="M0 0 C0.598125 0.309375 1.19625 0.61875 1.8125 0.9375 C4.08956772 2.10209704 4.08956772 2.10209704 7 3 C6.67 3.33 6.34 3.66 6 4 C5.92755947 6.01964199 5.91622812 8.04167124 5.9375 10.0625 C5.94652344 11.16722656 5.95554688 12.27195313 5.96484375 13.41015625 C5.97644531 14.26480469 5.98804688 15.11945313 6 16 C4.68 15.67 3.36 15.34 2 15 C2.33 16.32 2.66 17.64 3 19 C2.34 18.67 1.68 18.34 1 18 C1 17.34 1 16.68 1 16 C-0.32 16 -1.64 16 -3 16 C-3 18.31 -3 20.62 -3 23 C-3.33 23 -3.66 23 -4 23 C-5.125 15.25 -5.125 15.25 -4 13 C-3.01 13 -2.02 13 -1 13 C-1.020625 11.783125 -1.04125 10.56625 -1.0625 9.3125 C-1.06824116 6.08022678 -0.78766315 3.15065259 0 0 Z " fill="#545454" transform="translate(221,216)"/>
<path d="M0 0 C0.33 0 0.66 0 1 0 C1.144375 1.11375 1.28875 2.2275 1.4375 3.375 C1.78372035 6.82142047 1.78372035 6.82142047 3 9 C2.99135917 11.27685912 2.86951278 13.53546303 2.7421875 15.80859375 C3.0604837 18.51411144 3.92828041 19.31333824 6 21 C4.02 21.66 2.04 22.32 0 23 C0 15.41 0 7.82 0 0 Z " fill="#7E7E7E" transform="translate(239,446)"/>
<path d="M0 0 C3.37705625 0.53725895 6.696686 1.11064623 10 2 C9.67 3.32 9.34 4.64 9 6 C3.158256 6.35050464 -0.8531808 6.16727335 -6 3 C-3 2 -3 2 0 2 C0 1.34 0 0.68 0 0 Z " fill="#6F6F6F" transform="translate(455,182)"/>
<path d="M0 0 C1.32 0.33 2.64 0.66 4 1 C4 2.98 4 4.96 4 7 C4.66 7.33 5.32 7.66 6 8 C5.67 9.32 5.34 10.64 5 12 C2.69 12.66 0.38 13.32 -2 14 C-2 13.34 -2 12.68 -2 12 C-0.02 11.67 1.96 11.34 4 11 C3.34 9.35 2.68 7.7 2 6 C1.401875 6.515625 0.80375 7.03125 0.1875 7.5625 C-0.534375 8.036875 -1.25625 8.51125 -2 9 C-2.99 8.67 -3.98 8.34 -5 8 C-3.046875 5.75390625 -3.046875 5.75390625 -1.09375 3.5078125 C0.19572458 2.04063579 0.19572458 2.04063579 0 0 Z " fill="#979797" transform="translate(478,80)"/>
<path d="M0 0 C0.99 0.33 1.98 0.66 3 1 C2.67 1.99 2.34 2.98 2 4 C1.90601771 5.81054127 1.87008013 7.62452781 1.875 9.4375 C1.87242187 10.38496094 1.86984375 11.33242187 1.8671875 12.30859375 C1.98526525 14.70140459 2.31887365 16.71336153 3 19 C2.34 18.67 1.68 18.34 1 18 C1 17.34 1 16.68 1 16 C-0.32 16 -1.64 16 -3 16 C-3 18.31 -3 20.62 -3 23 C-3.33 23 -3.66 23 -4 23 C-5.125 15.25 -5.125 15.25 -4 13 C-3.01 13 -2.02 13 -1 13 C-1.020625 11.783125 -1.04125 10.56625 -1.0625 9.3125 C-1.06824116 6.08022678 -0.78766315 3.15065259 0 0 Z " fill="#BEBEBE" transform="translate(221,216)"/>
<path d="M0 0 C0.33 0 0.66 0 1 0 C1.10841951 1.91541138 1.18578079 3.83259773 1.25 5.75 C1.29640625 6.81734375 1.3428125 7.8846875 1.390625 8.984375 C1 12 1 12 -0.828125 14.390625 C-3 16 -3 16 -6 16 C-6.66 14.02 -7.32 12.04 -8 10 C-7.34 10 -6.68 10 -6 10 C-6 10.66 -6 11.32 -6 12 C-5.34 12 -4.68 12 -4 12 C-3.67 11.34 -3.34 10.68 -3 10 C-2.34 10 -1.68 10 -1 10 C-0.67 6.7 -0.34 3.4 0 0 Z " fill="#606060" transform="translate(416,431)"/>
<path d="M0 0 C2.4375 0.375 2.4375 0.375 5 1 C5.33 1.66 5.66 2.32 6 3 C5.01 3 4.02 3 3 3 C2.67 4.65 2.34 6.3 2 8 C5.3 8.33 8.6 8.66 12 9 C12 9.33 12 9.66 12 10 C10.20866022 10.05391993 8.41686101 10.09275571 6.625 10.125 C5.62726563 10.14820313 4.62953125 10.17140625 3.6015625 10.1953125 C1 10 1 10 -1 8 C-1.125 5.375 -1.125 5.375 -1 3 C-0.34 2.67 0.32 2.34 1 2 C0.67 1.34 0.34 0.68 0 0 Z " fill="#A1A1A1" transform="translate(142,348)"/>
<path d="M0 0 C0.99 0.99 1.98 1.98 3 3 C2.01 3 1.02 3 0 3 C0.66 3.66 1.32 4.32 2 5 C2.33 5.66 2.66 6.32 3 7 C2.67 7.66 2.34 8.32 2 9 C-0.97 8.67 -3.94 8.34 -7 8 C-6.67 7.34 -6.34 6.68 -6 6 C-5.360625 5.896875 -4.72125 5.79375 -4.0625 5.6875 C-3.381875 5.460625 -2.70125 5.23375 -2 5 C-0.70339566 2.50965614 -0.70339566 2.50965614 0 0 Z " fill="#ACACAC" transform="translate(481,288)"/>
<path d="M0 0 C0.99 0.33 1.98 0.66 3 1 C3 3.31 3 5.62 3 8 C5.88437779 6.70700306 7.87219421 5.34058637 10 3 C10.33 3.66 10.66 4.32 11 5 C11.66 5.33 12.32 5.66 13 6 C9.16674383 8.70582788 6.67461851 9.32613618 2 9 C2 7.02 2 5.04 2 3 C0.68 2.67 -0.64 2.34 -2 2 C-1.34 2 -0.68 2 0 2 C0 1.34 0 0.68 0 0 Z " fill="#B4B4B4" transform="translate(362,123)"/>
<path d="M0 0 C2 1 2 1 3.1875 3.875 C4 7 4 7 3 10 C3.66 10.33 4.32 10.66 5 11 C2.8614515 13.1385485 1.86724686 13.42655063 -1 14 C-1.33 13.01 -1.66 12.02 -2 11 C-0.68 10.67 0.64 10.34 2 10 C1.34 6.7 0.68 3.4 0 0 Z " fill="#D0D0D0" transform="translate(431,370)"/>
<path d="M0 0 C0.66 0.33 1.32 0.66 2 1 C2 2.32 2 3.64 2 5 C2.66 5.33 3.32 5.66 4 6 C4.40729228 8.32156597 4.74438677 10.6568787 5 13 C4.01 13.495 4.01 13.495 3 14 C3 11.69 3 9.38 3 7 C1.68 7.33 0.36 7.66 -1 8 C-1.125 2.25 -1.125 2.25 0 0 Z " fill="#959595" transform="translate(409,448)"/>
<path d="M0 0 C0.66 1.32 1.32 2.64 2 4 C-1.61328125 8.6875 -1.61328125 8.6875 -3 10 C-3.99 10 -4.98 10 -6 10 C-6 8.35 -6 6.7 -6 5 C-5.01 5 -4.02 5 -3 5 C-2.34 4.67 -1.68 4.34 -1 4 C-0.34786708 1.97536745 -0.34786708 1.97536745 0 0 Z " fill="#8D8D8D" transform="translate(423,387)"/>
<path d="M0 0 C0.33 1.98 0.66 3.96 1 6 C-1.9375 5.25 -1.9375 5.25 -5 4 C-5.875 1.875 -5.875 1.875 -6 0 C-3.50907189 -1.24546405 -2.58919267 -0.7767578 0 0 Z M-4 1 C-3 3 -3 3 -3 3 Z " fill="#666666" transform="translate(172,393)"/>
<path d="M0 0 C0.66 0 1.32 0 2 0 C1.67 1.98 1.34 3.96 1 6 C0.01 6 -0.98 6 -2 6 C-2.66 7.32 -3.32 8.64 -4 10 C-3.52651586 5.8333396 -2.95303159 3.07115285 0 0 Z " fill="#7F7F7F" transform="translate(294,187)"/>
<path d="M0 0 C5.5 -0.36666667 5.5 -0.36666667 7.875 1.375 C9 3 9 3 9 5 C8.34 5 7.68 5 7 5 C6.67 4.34 6.34 3.68 6 3 C4.35 3 2.7 3 1 3 C0.67 3.66 0.34 4.32 0 5 C-0.99 4.67 -1.98 4.34 -3 4 C-2.34 4 -1.68 4 -1 4 C-0.67 2.68 -0.34 1.36 0 0 Z " fill="#A0A0A0" transform="translate(490,92)"/>
<path d="M0 0 C0.33 0.66 0.66 1.32 1 2 C-0.98 4.97 -0.98 4.97 -3 8 C-3.99 7.67 -4.98 7.34 -6 7 C-6.33 7.99 -6.66 8.98 -7 10 C-7.66 9.67 -8.32 9.34 -9 9 C-6 6 -3 3 0 0 Z " fill="#888888" transform="translate(420,66)"/>
<path d="M0 0 C0.99 1.32 1.98 2.64 3 4 C1.74458443 6.51083114 0.49936512 6.87125446 -2 8 C-2.66 7.01 -3.32 6.02 -4 5 C-3.01 5 -2.02 5 -1 5 C-1.33 3.68 -1.66 2.36 -2 1 C-1.34 0.67 -0.68 0.34 0 0 Z " fill="#707070" transform="translate(442,51)"/>
<path d="M0 0 C1.32 0 2.64 0 4 0 C4 0.66 4 1.32 4 2 C3.34 2 2.68 2 2 2 C2.309375 3.423125 2.309375 3.423125 2.625 4.875 C2.74875 5.90625 2.8725 6.9375 3 8 C2.34 8.66 1.68 9.32 1 10 C0.01 9.67 -0.98 9.34 -2 9 C-1.484375 8.62875 -0.96875 8.2575 -0.4375 7.875 C1.36319983 5.96826848 1.36319983 5.96826848 0.6875 2.8125 C0.460625 1.884375 0.23375 0.95625 0 0 Z " fill="#9E9E9E" transform="translate(137,322)"/>
<path d="M0 0 C-0.33 1.32 -0.66 2.64 -1 4 C-3.97 4 -6.94 4 -10 4 C-9 2 -9 2 -6.6875 0.875 C-4 0 -4 0 0 0 Z " fill="#A8A8A8" transform="translate(465,184)"/>
<path d="M0 0 C1.5 1.1875 1.5 1.1875 3 3 C3.1875 5.6875 3.1875 5.6875 3 8 C1.125 8.625 1.125 8.625 -1 9 C-1.66 8.34 -2.32 7.68 -3 7 C-2.34 6.34 -1.68 5.68 -1 5 C-0.35232207 2.42938689 -0.35232207 2.42938689 0 0 Z " fill="#929292" transform="translate(469,67)"/>
<path d="M0 0 C1.625 1 1.625 1 3 3 C2.65009645 5.8158905 1.84980278 8.2716858 1 11 C-0.98362069 8.08291076 -0.9876191 6.87619096 -0.625 3.25 C-0.41875 2.1775 -0.2125 1.105 0 0 Z " fill="#747474" transform="translate(174,404)"/>
<path d="M0 0 C0.66 0.33 1.32 0.66 2 1 C2 2.65 2 4.3 2 6 C2.66 6 3.32 6 4 6 C3.67 6.99 3.34 7.98 3 9 C1.68 8.67 0.36 8.34 -1 8 C-0.67 5.36 -0.34 2.72 0 0 Z " fill="#7A7A7A" transform="translate(132,271)"/>
<path d="M0 0 C0.33 0.99 0.66 1.98 1 3 C0.0409375 3.6496875 0.0409375 3.6496875 -0.9375 4.3125 C-3.26746003 5.91239177 -3.26746003 5.91239177 -4 9 C-4.66 9 -5.32 9 -6 9 C-4.68775452 5.06326356 -3.08089673 2.77280706 0 0 Z " fill="#666666" transform="translate(304,176)"/>
<path d="M0 0 C0.99 1.32 1.98 2.64 3 4 C2.01 4.495 2.01 4.495 1 5 C0.34444881 7.52733235 0.34444881 7.52733235 0 10 C-0.66 9.01 -1.32 8.02 -2 7 C-1.34 7 -0.68 7 0 7 C-0.2784375 5.824375 -0.2784375 5.824375 -0.5625 4.625 C-1 2 -1 2 0 0 Z " fill="#8D8D8D" transform="translate(435,46)"/>
<path d="M0 0 C5.53846154 -0.36923077 5.53846154 -0.36923077 7.875 1.5 C8.24625 1.995 8.6175 2.49 9 3 C6 4 6 4 2.8125 2.5625 C1.884375 2.046875 0.95625 1.53125 0 1 C0 0.67 0 0.34 0 0 Z " fill="#ACACAC" transform="translate(290,455)"/>
<path d="M0 0 C2 3 2 3 2 7 C0.68 6.67 -0.64 6.34 -2 6 C-1.34 4.02 -0.68 2.04 0 0 Z " fill="#393939" transform="translate(384,305)"/>
<path d="M0 0 C2.125 0.375 2.125 0.375 4 1 C2.02 1.99 2.02 1.99 0 3 C0 3.66 0 4.32 0 5 C-0.99 4.67 -1.98 4.34 -3 4 C-2 2 -2 2 0 0 Z " fill="#9E9E9E" transform="translate(200,265)"/>
<path d="M0 0 C0.66 0.66 1.32 1.32 2 2 C1.01 2 0.02 2 -1 2 C-0.67 1.34 -0.34 0.68 0 0 Z " fill="#FFFFFF" transform="translate(479,297)"/>
<path d="M0 0 C0.66 0 1.32 0 2 0 C1.67 0.66 1.34 1.32 1 2 C0.67 1.34 0.34 0.68 0 0 Z " fill="#FFFFFF" transform="translate(246,467)"/>
<path d="M0 0 C0.33 0.66 0.66 1.32 1 2 C0.34 1.67 -0.32 1.34 -1 1 C-0.67 0.67 -0.34 0.34 0 0 Z " fill="#FFFFFF" transform="translate(277,458)"/>
<path d="M0 0 C0.66 0 1.32 0 2 0 C1.67 0.66 1.34 1.32 1 2 C0.67 1.34 0.34 0.68 0 0 Z " fill="#FFFFFF" transform="translate(414,446)"/>
<path d="M0 0 C0.66 0.66 1.32 1.32 2 2 C1.34 2 0.68 2 0 2 C0 1.34 0 0.68 0 0 Z " fill="#FFFFFF" transform="translate(498,154)"/>
<path d="M0 0 C2 1 2 1 2 1 Z " fill="#FFFFFF" transform="translate(340,488)"/>
<path d="M0 0 C2 1 2 1 2 1 Z " fill="#FFFFFF" transform="translate(393,476)"/>
<path d="M0 0 C2 1 2 1 2 1 Z " fill="#FFFFFF" transform="translate(315,463)"/>
<path d="" fill="#FFFFFF" transform="translate(0,0)"/>
<path d="" fill="#FFFFFF" transform="translate(0,0)"/>
<path d="" fill="#FFFFFF" transform="translate(0,0)"/>
<path d="M0 0 C2 1 2 1 2 1 Z " fill="#FFFFFF" transform="translate(421,395)"/>
<path d="" fill="#FFFFFF" transform="translate(0,0)"/>
<path d="M0 0 C2 1 2 1 2 1 Z " fill="#FFFFFF" transform="translate(466,311)"/>
<path d="M0 0 C2 1 2 1 2 1 Z " fill="#FFFFFF" transform="translate(128,276)"/>
<path d="" fill="#FFFFFF" transform="translate(0,0)"/>
<path d="M0 0 C2 1 2 1 2 1 Z " fill="#FFFFFF" transform="translate(467,202)"/>
<path d="" fill="#FFFFFF" transform="translate(0,0)"/>
<path d="M0 0 C2 1 2 1 2 1 Z " fill="#FFFFFF" transform="translate(301,176)"/>
<path d="M0 0 C2 1 2 1 2 1 Z " fill="#FFFFFF" transform="translate(499,153)"/>
<path d="" fill="#FFFFFF" transform="translate(0,0)"/>
<path d="" fill="#FFFFFF" transform="translate(0,0)"/>
<path d="M0 0 C2 1 2 1 2 1 Z " fill="#FFFFFF" transform="translate(383,100)"/>
<path d="M0 0 C2 1 2 1 2 1 Z " fill="#FFFFFF" transform="translate(485,95)"/>
<path d="" fill="#FFFFFF" transform="translate(0,0)"/>
<path d="" fill="#FFFFFF" transform="translate(0,0)"/>
<path d="" fill="#FFFFFF" transform="translate(0,0)"/>
<path d="" fill="#FFFFFF" transform="translate(0,0)"/>
<path d="" fill="#FFFFFF" transform="translate(0,0)"/>
<path d="" fill="#FFFFFF" transform="translate(0,0)"/>
<path d="" fill="#FFFFFF" transform="translate(0,0)"/>
<path d="" fill="#FFFFFF" transform="translate(0,0)"/>
<path d="" fill="#FFFFFF" transform="translate(0,0)"/>
<path d="" fill="#FFFFFF" transform="translate(0,0)"/>
<path d="" fill="#FFFFFF" transform="translate(0,0)"/>
<path d="" fill="#FFFFFF" transform="translate(0,0)"/>
<path d="" fill="#FFFFFF" transform="translate(0,0)"/>
<path d="" fill="#FFFFFF" transform="translate(0,0)"/>
<path d="" fill="#FFFFFF" transform="translate(0,0)"/>
<path d="" fill="#FFFFFF" transform="translate(0,0)"/>
<path d="" fill="#FFFFFF" transform="translate(0,0)"/>
<path d="" fill="#FFFFFF" transform="translate(0,0)"/>
<path d="" fill="#FFFFFF" transform="translate(0,0)"/>
<path d="" fill="#FFFFFF" transform="translate(0,0)"/>
<path d="" fill="#FFFFFF" transform="translate(0,0)"/>
<path d="" fill="#FFFFFF" transform="translate(0,0)"/>
<path d="" fill="#FFFFFF" transform="translate(0,0)"/>
<path d="" fill="#FFFFFF" transform="translate(0,0)"/>
<path d="" fill="#FFFFFF" transform="translate(0,0)"/>
<path d="" fill="#FFFFFF" transform="translate(0,0)"/>
<path d="" fill="#FFFFFF" transform="translate(0,0)"/>
<path d="" fill="#FFFFFF" transform="translate(0,0)"/>
<path d="" fill="#FFFFFF" transform="translate(0,0)"/>
<path d="" fill="#FFFFFF" transform="translate(0,0)"/>
<path d="" fill="#FFFFFF" transform="translate(0,0)"/>
<path d="" fill="#FFFFFF" transform="translate(0,0)"/>
<path d="" fill="#FFFFFF" transform="translate(0,0)"/>
<path d="" fill="#FFFFFF" transform="translate(0,0)"/>
<path d="" fill="#FFFFFF" transform="translate(0,0)"/>
<path d="" fill="#FFFFFF" transform="translate(0,0)"/>
<path d="" fill="#FFFFFF" transform="translate(0,0)"/>
<path d="" fill="#FFFFFF" transform="translate(0,0)"/>
<path d="" fill="#FFFFFF" transform="translate(0,0)"/>
<path d="" fill="#FFFFFF" transform="translate(0,0)"/>
<path d="" fill="#FFFFFF" transform="translate(0,0)"/>
<path d="" fill="#FFFFFF" transform="translate(0,0)"/>
<path d="" fill="#FFFFFF" transform="translate(0,0)"/>
<path d="" fill="#FFFFFF" transform="translate(0,0)"/>
<path d="" fill="#FFFFFF" transform="translate(0,0)"/>
<path d="" fill="#FFFFFF" transform="translate(0,0)"/>
<path d="" fill="#FFFFFF" transform="translate(0,0)"/>
<path d="" fill="#FFFFFF" transform="translate(0,0)"/>
<path d="" fill="#FFFFFF" transform="translate(0,0)"/>
<path d="" fill="#FFFFFF" transform="translate(0,0)"/>
<path d="" fill="#FFFFFF" transform="translate(0,0)"/>
<path d="" fill="#FFFFFF" transform="translate(0,0)"/>
<path d="" fill="#FFFFFF" transform="translate(0,0)"/>
<path d="" fill="#FFFFFF" transform="translate(0,0)"/>
<path d="" fill="#FFFFFF" transform="translate(0,0)"/>
<path d="" fill="#FFFFFF" transform="translate(0,0)"/>
<path d="" fill="#FFFFFF" transform="translate(0,0)"/>
<path d="" fill="#FFFFFF" transform="translate(0,0)"/>
<path d="" fill="#FFFFFF" transform="translate(0,0)"/>
<path d="" fill="#FFFFFF" transform="translate(0,0)"/>
<path d="" fill="#FFFFFF" transform="translate(0,0)"/>
<path d="" fill="#FFFFFF" transform="translate(0,0)"/>
<path d="" fill="#FFFFFF" transform="translate(0,0)"/>
<path d="" fill="#FFFFFF" transform="translate(0,0)"/>
<path d="" fill="#FFFFFF" transform="translate(0,0)"/>
<path d="" fill="#FFFFFF" transform="translate(0,0)"/>
<path d="" fill="#FFFFFF" transform="translate(0,0)"/>
<path d="" fill="#FFFFFF" transform="translate(0,0)"/>
<path d="" fill="#FFFFFF" transform="translate(0,0)"/>
<path d="" fill="#FFFFFF" transform="translate(0,0)"/>
<path d="" fill="#FFFFFF" transform="translate(0,0)"/>
<path d="" fill="#FFFFFF" transform="translate(0,0)"/>
<path d="" fill="#FFFFFF" transform="translate(0,0)"/>
<path d="" fill="#FFFFFF" transform="translate(0,0)"/>
<path d="" fill="#FFFFFF" transform="translate(0,0)"/>
<path d="" fill="#FFFFFF" transform="translate(0,0)"/>
<path d="" fill="#FFFFFF" transform="translate(0,0)"/>
<path d="" fill="#FFFFFF" transform="translate(0,0)"/>
<path d="" fill="#FFFFFF" transform="translate(0,0)"/>
<path d="" fill="#FFFFFF" transform="translate(0,0)"/>
<path d="" fill="#FFFFFF" transform="translate(0,0)"/>
<path d="" fill="#FFFFFF" transform="translate(0,0)"/>
<path d="" fill="#FFFFFF" transform="translate(0,0)"/>
<path d="" fill="#FFFFFF" transform="translate(0,0)"/>
<path d="" fill="#FFFFFF" transform="translate(0,0)"/>
<path d="" fill="#FFFFFF" transform="translate(0,0)"/>
<path d="" fill="#FFFFFF" transform="translate(0,0)"/>
<path d="" fill="#FFFFFF" transform="translate(0,0)"/>
<path d="" fill="#FFFFFF" transform="translate(0,0)"/>
<path d="" fill="#FFFFFF" transform="translate(0,0)"/>
<path d="" fill="#FFFFFF" transform="translate(0,0)"/>
<path d="" fill="#FFFFFF" transform="translate(0,0)"/>
<path d="" fill="#FFFFFF" transform="translate(0,0)"/>
<path d="" fill="#FFFFFF" transform="translate(0,0)"/>
<path d="" fill="#FFFFFF" transform="translate(0,0)"/>
<path d="" fill="#FFFFFF" transform="translate(0,0)"/>
<path d="" fill="#FFFFFF" transform="translate(0,0)"/>
<path d="" fill="#FFFFFF" transform="translate(0,0)"/>
<path d="" fill="#FFFFFF" transform="translate(0,0)"/>
<path d="" fill="#FFFFFF" transform="translate(0,0)"/>
<path d="" fill="#FFFFFF" transform="translate(0,0)"/>
<path d="" fill="#FFFFFF" transform="translate(0,0)"/>
<path d="" fill="#FFFFFF" transform="translate(0,0)"/>
<path d="" fill="#FFFFFF" transform="translate(0,0)"/>
<path d="" fill="#FFFFFF" transform="translate(0,0)"/>
<path d="" fill="#FFFFFF" transform="translate(0,0)"/>
<path d="" fill="#FFFFFF" transform="translate(0,0)"/>
<path d="" fill="#FFFFFF" transform="translate(0,0)"/>
<path d="" fill="#FFFFFF" transform="translate(0,0)"/>
<path d="" fill="#FFFFFF" transform="translate(0,0)"/>
<path d="" fill="#FFFFFF" transform="translate(0,0)"/>
<path d="" fill="#FFFFFF" transform="translate(0,0)"/>
<path d="" fill="#FFFFFF" transform="translate(0,0)"/>
<path d="" fill="#FFFFFF" transform="translate(0,0)"/>
<path d="" fill="#FFFFFF" transform="translate(0,0)"/>
<path d="" fill="#FFFFFF" transform="translate(0,0)"/>
<path d="" fill="#FFFFFF" transform="translate(0,0)"/>
<path d="" fill="#FFFFFF" transform="translate(0,0)"/>
<path d="" fill="#FFFFFF" transform="translate(0,0)"/>
<path d="" fill="#FFFFFF" transform="translate(0,0)"/>
<path d="" fill="#FFFFFF" transform="translate(0,0)"/>
<path d="" fill="#FFFFFF" transform="translate(0,0)"/>
<path d="" fill="#FFFFFF" transform="translate(0,0)"/>
<path d="" fill="#FFFFFF" transform="translate(0,0)"/>
<path d="" fill="#FFFFFF" transform="translate(0,0)"/>
<path d="" fill="#FFFFFF" transform="translate(0,0)"/>
<path d="" fill="#FFFFFF" transform="translate(0,0)"/>
<path d="" fill="#FFFFFF" transform="translate(0,0)"/>
<path d="" fill="#FFFFFF" transform="translate(0,0)"/>
<path d="" fill="#FFFFFF" transform="translate(0,0)"/>
<path d="" fill="#FFFFFF" transform="translate(0,0)"/>
<path d="" fill="#FFFFFF" transform="translate(0,0)"/>
<path d="" fill="#FFFFFF" transform="translate(0,0)"/>
<path d="" fill="#FFFFFF" transform="translate(0,0)"/>
<path d="" fill="#FFFFFF" transform="translate(0,0)"/>
<path d="" fill="#FFFFFF" transform="translate(0,0)"/>
<path d="" fill="#FFFFFF" transform="translate(0,0)"/>
<path d="" fill="#FFFFFF" transform="translate(0,0)"/>
<path d="" fill="#FFFFFF" transform="translate(0,0)"/>
<path d="" fill="#FFFFFF" transform="translate(0,0)"/>
<path d="" fill="#FFFFFF" transform="translate(0,0)"/>
<path d="" fill="#FFFFFF" transform="translate(0,0)"/>
<path d="" fill="#FFFFFF" transform="translate(0,0)"/>
<path d="" fill="#FFFFFF" transform="translate(0,0)"/>
<path d="" fill="#FFFFFF" transform="translate(0,0)"/>
<path d="" fill="#FFFFFF" transform="translate(0,0)"/>
<path d="" fill="#FFFFFF" transform="translate(0,0)"/>
<path d="" fill="#FFFFFF" transform="translate(0,0)"/>
<path d="" fill="#FFFFFF" transform="translate(0,0)"/>
<path d="" fill="#FFFFFF" transform="translate(0,0)"/>
<path d="" fill="#FFFFFF" transform="translate(0,0)"/>
<path d="" fill="#FFFFFF" transform="translate(0,0)"/>
<path d="" fill="#FFFFFF" transform="translate(0,0)"/>
<path d="" fill="#FFFFFF" transform="translate(0,0)"/>
<path d="" fill="#FFFFFF" transform="translate(0,0)"/>
<path d="" fill="#FFFFFF" transform="translate(0,0)"/>
<path d="" fill="#FFFFFF" transform="translate(0,0)"/>
<path d="" fill="#FFFFFF" transform="translate(0,0)"/>
<path d="" fill="#FFFFFF" transform="translate(0,0)"/>
<path d="" fill="#FFFFFF" transform="translate(0,0)"/>
<path d="" fill="#FFFFFF" transform="translate(0,0)"/>
<path d="" fill="#FFFFFF" transform="translate(0,0)"/>
<path d="" fill="#FFFFFF" transform="translate(0,0)"/>
<path d="" fill="#FFFFFF" transform="translate(0,0)"/>
<path d="" fill="#FFFFFF" transform="translate(0,0)"/>
<path d="" fill="#FFFFFF" transform="translate(0,0)"/>
<path d="" fill="#FFFFFF" transform="translate(0,0)"/>
<path d="" fill="#FFFFFF" transform="translate(0,0)"/>
<path d="" fill="#FFFFFF" transform="translate(0,0)"/>
<path d="" fill="#FFFFFF" transform="translate(0,0)"/>
<path d="" fill="#FFFFFF" transform="translate(0,0)"/>
<path d="" fill="#FFFFFF" transform="translate(0,0)"/>
<path d="" fill="#FFFFFF" transform="translate(0,0)"/>
<path d="" fill="#FFFFFF" transform="translate(0,0)"/>
<path d="" fill="#FFFFFF" transform="translate(0,0)"/>
<path d="" fill="#FFFFFF" transform="translate(0,0)"/>
<path d="" fill="#FFFFFF" transform="translate(0,0)"/>
<path d="" fill="#FFFFFF" transform="translate(0,0)"/>
<path d="" fill="#FFFFFF" transform="translate(0,0)"/>
<path d="" fill="#FFFFFF" transform="translate(0,0)"/>
<path d="" fill="#FFFFFF" transform="translate(0,0)"/>
<path d="" fill="#FFFFFF" transform="translate(0,0)"/>
<path d="" fill="#FFFFFF" transform="translate(0,0)"/>
<path d="" fill="#FFFFFF" transform="translate(0,0)"/>
<path d="" fill="#FFFFFF" transform="translate(0,0)"/>
<path d="" fill="#FFFFFF" transform="translate(0,0)"/>
<path d="" fill="#FFFFFF" transform="translate(0,0)"/>
<path d="" fill="#FFFFFF" transform="translate(0,0)"/>
<path d="" fill="#FFFFFF" transform="translate(0,0)"/>
<path d="" fill="#FFFFFF" transform="translate(0,0)"/>
<path d="" fill="#FFFFFF" transform="translate(0,0)"/>
<path d="" fill="#FFFFFF" transform="translate(0,0)"/>
<path d="" fill="#FFFFFF" transform="translate(0,0)"/>
<path d="" fill="#FFFFFF" transform="translate(0,0)"/>
<path d="" fill="#FFFFFF" transform="translate(0,0)"/>
<path d="" fill="#FFFFFF" transform="translate(0,0)"/>
<path d="" fill="#FFFFFF" transform="translate(0,0)"/>
<path d="" fill="#FFFFFF" transform="translate(0,0)"/>
<path d="" fill="#FFFFFF" transform="translate(0,0)"/>
<path d="" fill="#FFFFFF" transform="translate(0,0)"/>
<path d="" fill="#FFFFFF" transform="translate(0,0)"/>
<path d="" fill="#FFFFFF" transform="translate(0,0)"/>
<path d="" fill="#FFFFFF" transform="translate(0,0)"/>
<path d="" fill="#FFFFFF" transform="translate(0,0)"/>
<path d="" fill="#FFFFFF" transform="translate(0,0)"/>
<path d="" fill="#FFFFFF" transform="translate(0,0)"/>
<path d="" fill="#FFFFFF" transform="translate(0,0)"/>
<path d="" fill="#FFFFFF" transform="translate(0,0)"/>
<path d="" fill="#FFFFFF" transform="translate(0,0)"/>
<path d="" fill="#FFFFFF" transform="translate(0,0)"/>
<path d="" fill="#FFFFFF" transform="translate(0,0)"/>
<path d="" fill="#FFFFFF" transform="translate(0,0)"/>
<path d="" fill="#FFFFFF" transform="translate(0,0)"/>
<path d="" fill="#FFFFFF" transform="translate(0,0)"/>
<path d="" fill="#FFFFFF" transform="translate(0,0)"/>
<path d="" fill="#FFFFFF" transform="translate(0,0)"/>
<path d="" fill="#FFFFFF" transform="translate(0,0)"/>
<path d="" fill="#FFFFFF" transform="translate(0,0)"/>
<path d="" fill="#FFFFFF" transform="translate(0,0)"/>
<path d="" fill="#FFFFFF" transform="translate(0,0)"/>
<path d="" fill="#FFFFFF" transform="translate(0,0)"/>
<path d="" fill="#FFFFFF" transform="translate(0,0)"/>
<path d="" fill="#FFFFFF" transform="translate(0,0)"/>
<path d="" fill="#FFFFFF" transform="translate(0,0)"/>
<path d="" fill="#FFFFFF" transform="translate(0,0)"/>
<path d="" fill="#FFFFFF" transform="translate(0,0)"/>
<path d="" fill="#FFFFFF" transform="translate(0,0)"/>
<path d="" fill="#FFFFFF" transform="translate(0,0)"/>
<path d="" fill="#FFFFFF" transform="translate(0,0)"/>
<path d="" fill="#FFFFFF" transform="translate(0,0)"/>
<path d="" fill="#FFFFFF" transform="translate(0,0)"/>
<path d="" fill="#FFFFFF" transform="translate(0,0)"/>
<path d="" fill="#FFFFFF" transform="translate(0,0)"/>
<path d="" fill="#FFFFFF" transform="translate(0,0)"/>
<path d="" fill="#FFFFFF" transform="translate(0,0)"/>
<path d="" fill="#FFFFFF" transform="translate(0,0)"/>
<path d="" fill="#FFFFFF" transform="translate(0,0)"/>
<path d="" fill="#FFFFFF" transform="translate(0,0)"/>
<path d="" fill="#FFFFFF" transform="translate(0,0)"/>
<path d="" fill="#FFFFFF" transform="translate(0,0)"/>
<path d="" fill="#FFFFFF" transform="translate(0,0)"/>
<path d="" fill="#FFFFFF" transform="translate(0,0)"/>
<path d="" fill="#FFFFFF" transform="translate(0,0)"/>
<path d="" fill="#FFFFFF" transform="translate(0,0)"/>
<path d="" fill="#FFFFFF" transform="translate(0,0)"/>
<path d="" fill="#FFFFFF" transform="translate(0,0)"/>
<path d="" fill="#FFFFFF" transform="translate(0,0)"/>
<path d="" fill="#FFFFFF" transform="translate(0,0)"/>
<path d="" fill="#FFFFFF" transform="translate(0,0)"/>
<path d="" fill="#FFFFFF" transform="translate(0,0)"/>
<path d="" fill="#FFFFFF" transform="translate(0,0)"/>
<path d="" fill="#FFFFFF" transform="translate(0,0)"/>
<path d="" fill="#FFFFFF" transform="translate(0,0)"/>
<path d="" fill="#FFFFFF" transform="translate(0,0)"/>
<path d="" fill="#FFFFFF" transform="translate(0,0)"/>
<path d="" fill="#FFFFFF" transform="translate(0,0)"/>
<path d="" fill="#FFFFFF" transform="translate(0,0)"/>
<path d="" fill="#FFFFFF" transform="translate(0,0)"/>
<path d="" fill="#FFFFFF" transform="translate(0,0)"/>
<path d="" fill="#FFFFFF" transform="translate(0,0)"/>
<path d="" fill="#FFFFFF" transform="translate(0,0)"/>
<path d="" fill="#FFFFFF" transform="translate(0,0)"/>
<path d="" fill="#FFFFFF" transform="translate(0,0)"/>
<path d="" fill="#FFFFFF" transform="translate(0,0)"/>
<path d="" fill="#FFFFFF" transform="translate(0,0)"/>
<path d="" fill="#FFFFFF" transform="translate(0,0)"/>
<path d="" fill="#FFFFFF" transform="translate(0,0)"/>
<path d="" fill="#FFFFFF" transform="translate(0,0)"/>
<path d="" fill="#FFFFFF" transform="translate(0,0)"/>
<path d="" fill="#FFFFFF" transform="translate(0,0)"/>
<path d="" fill="#FFFFFF" transform="translate(0,0)"/>
<path d="" fill="#FFFFFF" transform="translate(0,0)"/>
<path d="" fill="#FFFFFF" transform="translate(0,0)"/>
<path d="" fill="#FFFFFF" transform="translate(0,0)"/>
<path d="" fill="#FFFFFF" transform="translate(0,0)"/>
<path d="" fill="#FFFFFF" transform="translate(0,0)"/>
<path d="" fill="#FFFFFF" transform="translate(0,0)"/>
<path d="" fill="#FFFFFF" transform="translate(0,0)"/>
<path d="" fill="#FFFFFF" transform="translate(0,0)"/>
<path d="" fill="#FFFFFF" transform="translate(0,0)"/>
<path d="" fill="#FFFFFF" transform="translate(0,0)"/>
<path d="" fill="#FFFFFF" transform="translate(0,0)"/>
<path d="" fill="#FFFFFF" transform="translate(0,0)"/>
<path d="" fill="#FFFFFF" transform="translate(0,0)"/>
<path d="" fill="#FFFFFF" transform="translate(0,0)"/>
<path d="" fill="#FFFFFF" transform="translate(0,0)"/>
<path d="" fill="#FFFFFF" transform="translate(0,0)"/>
<path d="" fill="#FFFFFF" transform="translate(0,0)"/>
<path d="" fill="#FFFFFF" transform="translate(0,0)"/>
<path d="" fill="#FFFFFF" transform="translate(0,0)"/>
<path d="" fill="#FFFFFF" transform="translate(0,0)"/>
<path d="" fill="#FFFFFF" transform="translate(0,0)"/>
<path d="" fill="#FFFFFF" transform="translate(0,0)"/>
<path d="" fill="#FFFFFF" transform="translate(0,0)"/>
<path d="" fill="#FFFFFF" transform="translate(0,0)"/>
<path d="" fill="#FFFFFF" transform="translate(0,0)"/>
<path d="" fill="#FFFFFF" transform="translate(0,0)"/>
<path d="" fill="#FFFFFF" transform="translate(0,0)"/>
<path d="" fill="#FFFFFF" transform="translate(0,0)"/>
<path d="" fill="#FFFFFF" transform="translate(0,0)"/>
<path d="" fill="#FFFFFF" transform="translate(0,0)"/>
<path d="" fill="#FFFFFF" transform="translate(0,0)"/>
<path d="" fill="#FFFFFF" transform="translate(0,0)"/>
<path d="" fill="#FFFFFF" transform="translate(0,0)"/>
<path d="" fill="#FFFFFF" transform="translate(0,0)"/>
<path d="" fill="#FFFFFF" transform="translate(0,0)"/>
<path d="" fill="#FFFFFF" transform="translate(0,0)"/>
<path d="" fill="#FFFFFF" transform="translate(0,0)"/>
<path d="" fill="#FFFFFF" transform="translate(0,0)"/>
<path d="" fill="#FFFFFF" transform="translate(0,0)"/>
<path d="" fill="#FFFFFF" transform="translate(0,0)"/>
<path d="" fill="#FFFFFF" transform="translate(0,0)"/>
<path d="" fill="#FFFFFF" transform="translate(0,0)"/>
<path d="" fill="#FFFFFF" transform="translate(0,0)"/>
<path d="" fill="#FFFFFF" transform="translate(0,0)"/>
<path d="" fill="#FFFFFF" transform="translate(0,0)"/>
<path d="" fill="#FFFFFF" transform="translate(0,0)"/>
<path d="" fill="#FFFFFF" transform="translate(0,0)"/>
<path d="" fill="#FFFFFF" transform="translate(0,0)"/>
<path d="" fill="#FFFFFF" transform="translate(0,0)"/>
<path d="" fill="#FFFFFF" transform="translate(0,0)"/>
<path d="" fill="#FFFFFF" transform="translate(0,0)"/>
<path d="" fill="#FFFFFF" transform="translate(0,0)"/>
<path d="" fill="#FFFFFF" transform="translate(0,0)"/>
<path d="" fill="#FFFFFF" transform="translate(0,0)"/>
<path d="" fill="#FFFFFF" transform="translate(0,0)"/>
<path d="" fill="#FFFFFF" transform="translate(0,0)"/>
</svg>
